<svg xmlns="http://www.w3.org/2000/svg" version="1.1" xmlns:xlink="http://www.w3.org/1999/xlink" width="512" height="512" x="0" y="0" viewBox="0 0 32 32" style="enable-background:new 0 0 512 512" xml:space="preserve"><g><path d="M19.5 23.75a1 1 0 0 0 1-1v-10a1 1 0 0 0-2 0v10a1 1 0 0 0 1 1zM12.5 23.75a1 1 0 0 0 1-1v-10a1 1 0 0 0-2 0v10a1 1 0 0 0 1 1zM20 4.25a1 1 0 0 0 0-2h-8a1 1 0 0 0 0 2z" fill="#fff" opacity="1" data-original="#fff"></path><path d="M5 5.25a1 1 0 0 0 0 2h1v18.4c0 2.26 1.84 4.1 4.1 4.1h11.8c2.26 0 4.1-1.84 4.1-4.1V7.25h1a1 1 0 0 0 0-2H7zm19 2v18.4a2.1 2.1 0 0 1-2.1 2.1H10.1a2.1 2.1 0 0 1-2.1-2.1V7.25z" fill="#fff" opacity="1" data-original="#fff"></path></g></svg>